HIERARCHY
ROOT Hips
{
	OFFSET -0.001795 -0.223333 0.028219
	CHANNELS 6 Xposition Yposition Zposition Zrotation Yrotation Xrotation 
	JOINT LeftUpLeg
	{
		OFFSET 0.069520 -0.091406 -0.006815
		CHANNELS 3 Zrotation Yrotation Xrotation
		JOINT LeftLeg
		{
			OFFSET 0.034277 -0.375199 -0.004496
			CHANNELS 3 Zrotation Yrotation Xrotation
			JOINT LeftFoot
			{
				OFFSET -0.013596 -0.397961 -0.043693
				CHANNELS 3 Zrotation Yrotation Xrotation
				JOINT LeftToe
				{
					OFFSET 0.026358 -0.055791 0.119288
					CHANNELS 3 Zrotation Yrotation Xrotation
					End Site
					{
						OFFSET 0.000000 0.000000 0.000000
					}
				}
			}
		}
	}
	JOINT RightUpLeg
	{
		OFFSET -0.067670 -0.090522 -0.004320
		CHANNELS 3 Zrotation Yrotation Xrotation
		JOINT RightLeg
		{
			OFFSET -0.038290 -0.382569 -0.008850
			CHANNELS 3 Zrotation Yrotation Xrotation
			JOINT RightFoot
			{
				OFFSET 0.015774 -0.398415 -0.042312
				CHANNELS 3 Zrotation Yrotation Xrotation
				JOINT RightToe
				{
					OFFSET -0.025372 -0.048144 0.123348
					CHANNELS 3 Zrotation Yrotation Xrotation
					End Site
					{
						OFFSET 0.000000 0.000000 0.000000
					}
				}
			}
		}
	}
	JOINT Spine
	{
		OFFSET -0.002533 0.108963 -0.026696
		CHANNELS 3 Zrotation Yrotation Xrotation
		JOINT Spine1
		{
			OFFSET 0.005487 0.135180 0.001092
			CHANNELS 3 Zrotation Yrotation Xrotation
			JOINT Spine2
			{
				OFFSET 0.001457 0.052922 0.025425
				CHANNELS 3 Zrotation Yrotation Xrotation
				JOINT Neck
				{
					OFFSET -0.002778 0.213870 -0.042857
					CHANNELS 3 Zrotation Yrotation Xrotation
					JOINT Head
					{
						OFFSET 0.005152 0.064970 0.051349
						CHANNELS 3 Zrotation Yrotation Xrotation
						End Site
						{
							OFFSET 0.000000 0.000000 0.000000
						}
					}
				}
				JOINT LeftShoulder
				{
					OFFSET 0.078845 0.121749 -0.034090
					CHANNELS 3 Zrotation Yrotation Xrotation
					JOINT LeftArm
					{
						OFFSET 0.090977 0.030469 -0.008868
						CHANNELS 3 Zrotation Yrotation Xrotation
						JOINT LeftForeArm
						{
							OFFSET 0.259612 -0.012772 -0.027456
							CHANNELS 3 Zrotation Yrotation Xrotation
							JOINT LeftHand
							{
								OFFSET 0.249234 0.008986 -0.001171
								CHANNELS 3 Zrotation Yrotation Xrotation
								End Site
								{
									OFFSET 0.000000 0.000000 0.000000
								}
							}
						}
					}
				}
				JOINT RightShoulder
				{
					OFFSET -0.081759 0.118833 -0.038615
					CHANNELS 3 Zrotation Yrotation Xrotation
					JOINT RightArm
					{
						OFFSET -0.096012 0.032551 -0.009143
						CHANNELS 3 Zrotation Yrotation Xrotation
						JOINT RightForeArm
						{
							OFFSET -0.253742 -0.013329 -0.021401
							CHANNELS 3 Zrotation Yrotation Xrotation
							JOINT RightHand
							{
								OFFSET -0.255298 0.007772 -0.005559
								CHANNELS 3 Zrotation Yrotation Xrotation
								End Site
								{
									OFFSET 0.000000 0.000000 0.000000
								}
							}
						}
					}
				}
			}
		}
	}
}
MOTION
Frames: 7
Frame Time: 0.050000
0.000000 0.953055 0.000000 -0.574824 -8.836289 -0.493106 3.250745 -0.697781 -13.241809 -2.661289 0.342081 5.493151 17.540956 25.849042 41.634921 0.000000 0.000000 0.000000 1.108736 -0.577605 5.536685 1.021689 0.345267 10.169579 -5.775454 -6.672858 -15.958914 0.000000 0.000000 0.000000 -4.560504 0.065524 5.875513 4.994709 -0.712194 -24.627251 -0.411098 5.591965 26.928842 1.906796 0.188577 -21.674887 0.000000 0.000000 0.000000 -22.018273 4.924608 -4.030677 -56.514696 -5.858115 -6.567251 -7.297927 -32.469387 4.186302 0.000000 0.000000 0.000000 12.245381 2.997074 0.788935 57.718579 17.797752 0.405218 -5.082872 59.342426 1.228077 0.000000 0.000000 0.000000 
0.003408 0.953242 0.023611 -1.100458 -8.718745 0.406384 3.304822 -0.650463 -12.153987 -3.173361 0.425759 4.642533 19.383521 27.740270 40.114985 0.000000 0.000000 0.000000 0.688080 -0.405309 3.963075 1.891004 0.300287 12.492303 -5.844862 -7.312455 -15.578806 0.000000 0.000000 0.000000 -4.815110 0.083632 4.453042 4.758317 -0.660930 -24.467349 0.280077 5.188352 26.550009 1.663113 0.372319 -22.768346 0.000000 0.000000 0.000000 -22.468405 5.862497 -4.598476 -56.647153 -6.361457 -6.295582 -8.586701 -30.153376 4.200689 0.000000 0.000000 0.000000 9.973229 3.057356 0.836797 57.551879 22.753996 2.932437 -17.977542 63.053334 -6.401436 0.000000 0.000000 0.000000 
0.006613 0.954627 0.044681 -0.376408 -8.445754 0.247515 1.798500 -0.730248 -10.464516 -3.013839 0.394628 4.599002 19.171436 27.987863 37.588007 0.000000 0.000000 0.000000 -1.213714 -0.116464 2.047225 2.729862 0.278677 15.890502 -5.789042 -8.072770 -14.339878 0.000000 0.000000 0.000000 -5.048427 0.091422 3.762187 3.629570 -0.446286 -23.786387 -0.152383 5.285616 25.737923 2.932006 -0.469738 -21.533910 0.000000 0.000000 0.000000 -21.815107 4.696091 -3.932567 -56.225779 -6.454618 -6.114635 -7.054047 -29.325895 3.596561 0.000000 0.000000 0.000000 10.020287 4.189503 1.361053 53.338378 29.579263 5.786781 -34.239064 62.836778 -16.354936 0.000000 0.000000 0.000000 
0.009139 0.955706 0.062883 -0.368268 -9.189601 0.302668 1.593784 -0.629113 -8.664665 -2.932783 0.386915 4.060846 18.018585 27.107395 35.654880 0.000000 0.000000 0.000000 -2.188400 0.087194 0.077110 3.205629 0.336895 18.748525 -5.557206 -8.077193 -12.659688 0.000000 0.000000 0.000000 -5.485982 0.110569 2.896379 3.786916 -0.449834 -24.354239 0.013124 6.032239 26.390903 3.417953 -0.790784 -21.011347 0.000000 0.000000 0.000000 -22.132980 4.626007 -3.988543 -56.008301 -7.685640 -5.586063 -6.036819 -28.148690 3.164071 0.000000 0.000000 0.000000 7.603513 5.783977 2.097910 48.338811 36.824676 7.990539 -49.895115 56.744998 -23.179895 0.000000 0.000000 0.000000 
0.010725 0.957748 0.077573 -0.479794 -9.529737 0.239673 0.956001 -0.541656 -6.753859 -2.071380 0.248596 2.931614 17.552197 26.797028 34.548775 0.000000 0.000000 0.000000 -3.013599 0.243550 -1.655611 3.933436 0.214947 19.658189 -5.172903 -8.935501 -8.732815 0.000000 0.000000 0.000000 -5.272418 0.097605 2.506095 3.356773 -0.431234 -23.317523 -0.291148 6.817416 24.837692 5.054113 -1.818601 -20.100124 0.000000 0.000000 0.000000 -21.300839 3.331897 -3.348705 -55.810763 -8.237591 -5.125559 -4.789531 -27.704840 2.709888 0.000000 0.000000 0.000000 5.755723 7.610254 2.837800 40.828537 43.859787 8.933563 -55.324980 47.121257 -21.299737 0.000000 0.000000 0.000000 
0.011348 0.959370 0.089600 -0.549076 -9.562039 0.749702 0.498389 -0.491170 -5.726327 -1.961943 0.234822 2.302230 17.322723 26.988073 31.787496 0.000000 0.000000 0.000000 -3.101957 0.333234 -2.856458 3.223303 0.340721 18.544676 -4.677613 -9.625692 -4.299409 0.000000 0.000000 0.000000 -4.732956 0.081544 2.194234 2.793977 -0.232907 -24.204407 -0.775606 7.251124 24.672219 6.348331 -2.740005 -18.987865 0.000000 0.000000 0.000000 -20.658871 2.930352 -3.167173 -55.240442 -9.199358 -4.605783 -4.656216 -26.909185 2.539580 0.000000 0.000000 0.000000 3.337351 9.656593 3.542213 31.364269 48.708687 7.345652 -55.521471 37.082050 -16.362223 0.000000 0.000000 0.000000 
0.010856 0.961023 0.099175 -0.570757 -8.961815 1.010475 0.569953 -0.445090 -5.180538 -1.668704 0.192026 1.780120 15.934347 25.542335 32.016539 0.000000 0.000000 0.000000 -3.087866 0.349584 -3.105424 2.420895 0.338031 15.284277 -4.316825 -11.255706 2.127261 0.000000 0.000000 0.000000 -4.450912 0.071802 2.413792 2.472304 -0.125947 -24.504489 -1.011863 7.880267 24.303606 7.671493 -3.412089 -19.324947 0.000000 0.000000 0.000000 -19.942288 1.775224 -2.708668 -54.855142 -9.393705 -4.426639 -5.042405 -27.565233 2.616380 0.000000 0.000000 0.000000 0.585124 10.488581 3.686304 24.312498 52.511651 5.770751 -55.107376 28.543942 -11.898614 0.000000 0.000000 0.000000 
